<svg width="2332" height="2332" viewBox="0 0 2332 2332" fill="none" xmlns="http://www.w3.org/2000/svg">
<mask id="mask0_44_2" style="mask-type:alpha" maskUnits="userSpaceOnUse" x="71" y="0" width="2193" height="2332">
<path d="M1453.18 2253.32C1632.12 2168.22 1803.99 2068.99 1967.16 1956.56L2019.28 1920.3C2084.06 1875.65 2138.07 1817.14 2177.4 1749.01C2216.73 1680.88 2240.39 1604.83 2246.66 1526.42L2251.79 1462.75C2267.64 1265.23 2267.64 1066.76 2251.79 869.246L2246.66 805.581C2240.39 727.161 2216.73 651.123 2177.4 582.99C2138.07 514.858 2084.06 456.343 2019.28 411.698L1966.69 375.435C1803.53 263.009 1631.66 163.777 1452.71 78.682L1395.11 51.2804C1324.06 17.5175 1246.39 0 1167.73 0C1089.07 0 1011.41 17.5175 940.36 51.2804L882.758 78.682C703.809 163.777 531.937 263.009 368.775 375.435L316.188 411.698C251.415 456.343 197.393 514.858 158.063 582.99C118.733 651.123 95.0746 727.161 88.8131 805.581L83.6825 869.246C67.8246 1066.76 67.8246 1265.23 83.6825 1462.75L88.8131 1526.42C95.1562 1604.89 118.92 1680.97 158.378 1749.1C197.836 1817.25 251.986 1875.72 316.887 1920.3L369.475 1956.56C532.637 2068.99 704.508 2168.22 883.458 2253.32L941.06 2280.72C1012.11 2314.47 1089.77 2332 1168.43 2332C1247.09 2332 1324.76 2314.47 1395.81 2280.72L1453.18 2253.32Z" fill="white"/>
</mask>
<g mask="url(#mask0_44_2)">
<rect x="2332" width="2332" height="2332" transform="rotate(90 2332 0)" fill="#5D32F5"/>
</g>
<rect width="1541" height="1541" transform="translate(397 395)" fill="#5D32F5"/>
<path d="M1203.62 1085.94H1669.95L979.87 1700.43L1182.25 1307.71L1220.2 1234.07H1137.36H647.391L1341.99 637.989L1158.26 1013.23L1122.67 1085.94H1203.62Z" fill="#5D32F5" stroke="white" stroke-width="101"/>
</svg>
