<svg width="6980" height="2332" viewBox="0 0 6980 2332" fill="none" xmlns="http://www.w3.org/2000/svg">
<mask id="mask0_44_14" style="mask-type:alpha" maskUnits="userSpaceOnUse" x="71" y="0" width="2193" height="2332">
<path d="M1453.18 2253.32C1632.12 2168.22 1803.99 2068.99 1967.16 1956.56L2019.28 1920.3C2084.06 1875.65 2138.07 1817.14 2177.4 1749.01C2216.73 1680.88 2240.39 1604.83 2246.66 1526.42L2251.79 1462.75C2267.64 1265.23 2267.64 1066.76 2251.79 869.246L2246.66 805.581C2240.39 727.161 2216.73 651.123 2177.4 582.99C2138.07 514.858 2084.06 456.343 2019.28 411.698L1966.69 375.435C1803.53 263.009 1631.66 163.777 1452.71 78.682L1395.11 51.2804C1324.06 17.5175 1246.39 0 1167.73 0C1089.07 0 1011.41 17.5175 940.36 51.2804L882.758 78.682C703.809 163.777 531.937 263.009 368.775 375.435L316.188 411.698C251.415 456.343 197.393 514.858 158.063 582.99C118.733 651.123 95.0746 727.161 88.8131 805.581L83.6825 869.246C67.8246 1066.76 67.8246 1265.23 83.6825 1462.75L88.8131 1526.42C95.1562 1604.89 118.92 1680.97 158.378 1749.1C197.836 1817.25 251.986 1875.72 316.887 1920.3L369.475 1956.56C532.637 2068.99 704.508 2168.22 883.458 2253.32L941.06 2280.72C1012.11 2314.47 1089.77 2332 1168.43 2332C1247.09 2332 1324.76 2314.47 1395.81 2280.72L1453.18 2253.32Z" fill="white"/>
</mask>
<g mask="url(#mask0_44_14)">
<rect x="2332" width="2332" height="2332" transform="rotate(90 2332 0)" fill="#5D32F5"/>
</g>
<rect width="1541" height="1541" transform="translate(397 395)" fill="#5D32F5"/>
<path d="M1203.62 1085.94H1669.95L979.87 1700.43L1182.25 1307.71L1220.2 1234.07H1137.36H647.391L1341.99 637.989L1158.26 1013.23L1122.67 1085.94H1203.62Z" fill="#5D32F5" stroke="white" stroke-width="101"/>
<path d="M3029.15 1760.09C2943.7 1760.09 2869.64 1745.85 2806.97 1717.36C2744.3 1688.88 2695.88 1648.43 2661.69 1596.02C2628.65 1542.46 2611.56 1479.8 2610.42 1408.01H2824.06C2824.06 1459.29 2842.29 1499.74 2878.75 1529.36C2916.35 1557.85 2967.06 1572.09 3030.86 1572.09C3092.39 1572.09 3140.25 1557.85 3174.43 1529.36C3209.75 1500.87 3227.41 1461.57 3227.41 1411.43C3227.41 1369.27 3214.88 1332.81 3189.81 1302.05C3165.88 1270.14 3131.13 1248.5 3085.55 1237.1L2941.99 1197.79C2844 1172.72 2768.23 1127.72 2714.68 1062.77C2662.26 997.824 2636.06 919.205 2636.06 826.913C2636.06 756.269 2652.01 694.741 2683.91 642.328C2715.82 589.915 2760.82 549.466 2818.93 520.98C2878.18 492.495 2947.69 478.252 3027.44 478.252C3148.22 478.252 3243.93 509.586 3314.58 572.254C3385.22 633.782 3421.11 716.959 3422.25 821.785H3208.61C3208.61 772.79 3192.66 734.62 3160.76 707.274C3128.85 678.789 3083.85 664.546 3025.74 664.546C2969.9 664.546 2926.61 677.649 2895.84 703.856C2865.08 730.062 2849.7 767.093 2849.7 814.949C2849.7 858.246 2861.09 895.277 2883.88 926.041C2907.81 955.666 2941.99 976.745 2986.43 989.279L3135.12 1030.3C3234.25 1055.36 3310.02 1100.37 3362.43 1165.32C3414.84 1229.13 3441.05 1308.31 3441.05 1402.89C3441.05 1473.53 3423.96 1536.2 3389.78 1590.89C3355.6 1644.44 3307.74 1686.03 3246.21 1715.65C3184.68 1745.28 3112.33 1760.09 3029.15 1760.09ZM3503.62 1743V1555H3754.86V683.347H3503.62V495.344H4221.45V683.347H3970.21V1555H4221.45V1743H3503.62ZM4282.31 1743V495.344H4535.26L4656.61 891.859C4669.14 931.738 4679.4 968.2 4687.37 1001.24C4695.35 1034.29 4700.48 1058.21 4702.75 1073.03C4705.03 1058.21 4710.16 1034.29 4718.14 1001.24C4726.11 968.2 4735.8 931.738 4747.19 891.859L4863.41 495.344H5116.36V1743H4916.39V1355.03C4916.39 1298.06 4918.1 1235.96 4921.52 1168.74C4924.94 1101.51 4928.93 1034.29 4933.49 967.06C4938.04 899.835 4943.17 836.028 4948.87 775.639C4955.7 715.25 4961.4 662.267 4965.96 616.691L4798.47 1206.34H4603.63L4431 616.691C4436.7 659.989 4442.4 711.262 4448.1 770.512C4453.79 828.622 4458.92 891.289 4463.48 958.515C4469.18 1024.6 4473.73 1091.83 4477.15 1160.19C4480.57 1228.56 4482.28 1293.5 4482.28 1355.03V1743H4282.31ZM5539.56 1760.09C5454.1 1760.09 5380.04 1745.85 5317.37 1717.36C5254.7 1688.88 5206.28 1648.43 5172.09 1596.02C5139.05 1542.46 5121.96 1479.8 5120.82 1408.01H5334.46C5334.46 1459.29 5352.69 1499.74 5389.15 1529.36C5426.75 1557.85 5477.46 1572.09 5541.26 1572.09C5602.79 1572.09 5650.65 1557.85 5684.83 1529.36C5720.15 1500.87 5737.81 1461.57 5737.81 1411.43C5737.81 1369.27 5725.28 1332.81 5700.21 1302.05C5676.28 1270.14 5641.53 1248.5 5595.96 1237.1L5452.39 1197.79C5354.4 1172.72 5278.63 1127.72 5225.08 1062.77C5172.66 997.824 5146.46 919.205 5146.46 826.913C5146.46 756.269 5162.41 694.741 5194.31 642.328C5226.22 589.915 5271.22 549.466 5329.33 520.98C5388.58 492.495 5458.09 478.252 5537.85 478.252C5658.62 478.252 5754.33 509.586 5824.98 572.254C5895.62 633.782 5931.51 716.959 5932.65 821.785H5719.01C5719.01 772.79 5703.06 734.62 5671.16 707.274C5639.25 678.789 5594.25 664.546 5536.14 664.546C5480.31 664.546 5437.01 677.649 5406.24 703.856C5375.48 730.062 5360.1 767.093 5360.1 814.949C5360.1 858.246 5371.49 895.277 5394.28 926.041C5418.21 955.666 5452.39 976.745 5496.83 989.279L5645.52 1030.3C5744.65 1055.36 5820.42 1100.37 5872.83 1165.32C5925.25 1229.13 5951.45 1308.31 5951.45 1402.89C5951.45 1473.53 5934.36 1536.2 5900.18 1590.89C5866 1644.44 5818.14 1686.03 5756.61 1715.65C5695.08 1745.28 5622.73 1760.09 5539.56 1760.09Z" fill="#5D32F5"/>
<path d="M6236.47 1743.72L6081.79 1273.72H6191.18L6280.9 1559.14C6286.03 1576.23 6290.87 1593.89 6295.43 1612.12C6300.56 1630.35 6304.26 1644.88 6306.54 1655.7C6309.39 1644.88 6313.09 1630.35 6317.65 1612.12C6322.21 1593.89 6326.77 1576.51 6331.32 1559.99L6419.34 1273.72H6527.87L6374.05 1743.72H6236.47ZM6538.65 1743.72V1649.72H6701.01V1214.75L6537.79 1336.1V1223.3L6681.36 1119.9H6807.83V1649.72H6938.58V1743.72H6538.65Z" fill="#5D32F5"/>
</svg>
